<?xml version="1.0" encoding="UTF-8" standalone="no"?>
<svg
   xmlns:dc="http://purl.org/dc/elements/1.1/"
   xmlns:cc="http://creativecommons.org/ns#"
   xmlns:rdf="http://www.w3.org/1999/02/22-rdf-syntax-ns#"
   xmlns:svg="http://www.w3.org/2000/svg"
   xmlns="http://www.w3.org/2000/svg"
   xmlns:sodipodi="http://sodipodi.sourceforge.net/DTD/sodipodi-0.dtd"
   xmlns:inkscape="http://www.inkscape.org/namespaces/inkscape"
   version="1.0"
   width="3000.000000pt"
   height="3000.000000pt"
   viewBox="0 0 3000.000000 3000.000000"
   preserveAspectRatio="xMidYMid meet"
   id="svg28"
   sodipodi:docname="logo.svg"
   inkscape:version="0.92.3 (2405546, 2018-03-11)">
  <metadata
     id="metadata34">
    <rdf:RDF>
      <cc:Work
         rdf:about="">
        <dc:format>image/svg+xml</dc:format>
        <dc:type
           rdf:resource="http://purl.org/dc/dcmitype/StillImage" />
      </cc:Work>
    </rdf:RDF>
  </metadata>
  <defs
     id="defs32" />
  <sodipodi:namedview
     pagecolor="#ffffff"
     bordercolor="#666666"
     borderopacity="1"
     objecttolerance="10"
     gridtolerance="10"
     guidetolerance="10"
     inkscape:pageopacity="0"
     inkscape:pageshadow="2"
     inkscape:window-width="1920"
     inkscape:window-height="1052"
     id="namedview30"
     showgrid="false"
     inkscape:zoom="0.47"
     inkscape:cx="1349.1424"
     inkscape:cy="2064.3629"
     inkscape:window-x="0"
     inkscape:window-y="0"
     inkscape:window-maximized="1"
     inkscape:current-layer="svg28" />
  <g
     transform="matrix(0.1,0,0,-0.107326,0,3046.4442)"
     id="g26"
     style="fill:#009900;fill-opacity:1;stroke:none">
    <path
       d="m 14936,23538 c -18,-18 -43,-60 -55,-93 -30,-81 -1154,-3975 -1149,-3980 2,-2 80,7 174,20 251,36 373,46 644,52 539,12 1075,-45 1579,-167 112,-28 205,-49 206,-48 2,2 -30,113 -71,248 -40,135 -314,1055 -609,2044 -294,990 -547,1826 -562,1858 -45,101 -99,124 -157,66 z"
       id="path2"
       style="fill:#009900;fill-opacity:1"
       inkscape:connector-curvature="0" />
    <path
       d="m 8172,21430 c -13,-5 -30,-26 -38,-46 -23,-54 -12,-103 135,-597 71,-237 175,-587 231,-777 56,-190 126,-424 155,-520 29,-96 99,-330 155,-520 56,-190 116,-394 135,-455 40,-132 200,-670 451,-1520 62,-209 194,-650 325,-1090 69,-232 108,-338 142,-392 37,-58 134,-151 407,-391 135,-118 259,-226 275,-241 17,-14 516,-452 1109,-971 594,-520 1093,-957 1110,-972 28,-25 38,-27 113,-28 109,0 224,-17 291,-42 41,-15 77,-42 139,-102 47,-44 96,-99 109,-122 28,-48 60,-170 69,-267 5,-49 13,-74 28,-92 21,-22 439,-388 720,-630 71,-60 149,-122 175,-137 76,-45 132,-35 152,27 20,60 34,6 -301,1169 -60,209 -110,381 -112,383 -2,1 -95,30 -208,62 -883,258 -1605,573 -2024,883 -307,226 -605,539 -775,813 -167,269 -285,622 -337,1010 -25,190 -25,805 0,990 40,290 120,560 235,799 129,267 265,456 496,693 82,85 147,155 145,156 -2,2 -182,156 -399,342 -361,310 -494,425 -1006,866 -379,326 -1416,1219 -1667,1434 -315,271 -374,310 -435,285 z"
       id="path4"
       style="fill:#009900;fill-opacity:1"
       inkscape:connector-curvature="0" />
    <path
       d="m 21760,21408 c -37,-20 -166,-124 -328,-263 -746,-643 -1515,-1305 -1666,-1434 -521,-449 -656,-565 -1016,-875 -217,-187 -453,-389 -523,-449 l -128,-109 36,-42 c 184,-215 278,-353 380,-558 118,-238 197,-511 225,-783 16,-152 9,-685 -10,-740 -19,-55 -199,-236 -255,-255 -33,-12 -192,-15 -907,-18 -808,-2 -868,-4 -877,-20 -12,-23 -204,-693 -199,-696 1,-1 109,-37 238,-79 536,-176 909,-355 1233,-592 86,-63 182,-149 324,-292 l 203,-201 453,396 c 250,219 483,422 518,453 35,31 174,153 309,271 274,240 370,333 407,391 34,54 73,160 142,392 131,440 263,881 325,1090 251,850 411,1388 451,1520 19,61 79,265 135,455 56,190 126,424 155,520 29,96 99,330 155,520 56,190 160,540 231,777 147,494 158,543 135,597 -13,32 -46,56 -76,56 -4,0 -36,-15 -70,-32 z"
       id="path6"
       style="fill:#009900;fill-opacity:1"
       inkscape:connector-curvature="0" />
    <path
       d="m 14370,19309 c -1755,-154 -2982,-995 -3291,-2254 -60,-244 -73,-370 -73,-690 0,-223 4,-319 18,-415 66,-470 207,-829 460,-1168 115,-154 330,-365 508,-497 384,-287 838,-505 1558,-750 437,-148 645,-206 1290,-360 710,-169 885,-222 1135,-345 373,-184 506,-407 466,-781 -36,-330 -180,-549 -451,-688 -208,-106 -419,-152 -788,-172 -331,-17 -631,8 -912,77 -369,91 -618,237 -794,467 -139,182 -204,335 -230,543 -9,65 -21,137 -27,159 -34,121 -102,193 -214,228 l -70,22 h -920 c -856,0 -924,-1 -978,-18 -73,-22 -127,-71 -158,-140 -21,-47 -23,-71 -27,-235 -14,-602 169,-1161 542,-1657 100,-132 313,-356 451,-474 563,-482 1323,-815 2175,-955 470,-77 1032,-86 1575,-25 1736,195 2836,1035 3105,2369 51,251 63,387 64,690 0,457 -56,772 -198,1112 -217,519 -614,917 -1216,1217 -305,152 -442,202 -1230,455 -129,41 -416,125 -637,186 -221,60 -491,137 -599,171 -891,273 -1364,567 -1491,923 -54,155 -27,372 68,533 43,72 155,187 238,243 175,118 431,204 716,241 130,17 408,14 555,-5 468,-62 822,-220 1036,-464 126,-144 191,-251 254,-422 84,-229 158,-307 314,-331 40,-6 368,-9 877,-7 885,4 871,3 958,61 92,61 123,220 103,517 -31,448 -155,818 -387,1165 -539,801 -1607,1325 -2975,1460 -188,19 -656,27 -800,14 z"
       id="path8"
       style="fill:#009900;fill-opacity:1"
       inkscape:connector-curvature="0" />
    <path
       d="m 14595,17108 c -281,-24 -571,-117 -760,-243 -89,-59 -143,-127 -185,-234 -40,-103 -44,-141 -20,-212 68,-203 206,-328 560,-505 318,-159 676,-283 1379,-475 201,-55 403,-111 449,-125 46,-14 88,-24 94,-22 6,2 55,150 108,329 l 97,324 -77,80 c -92,96 -115,134 -174,287 -71,185 -121,272 -220,387 -158,186 -572,355 -976,400 -149,16 -179,17 -275,9 z"
       id="path10"
       style="fill:#009900;fill-opacity:1"
       inkscape:connector-curvature="0" />
    <path
       d="m 3703,15936 c -73,-34 -65,-103 22,-191 30,-29 193,-173 362,-318 169,-145 346,-297 393,-338 104,-90 825,-711 1265,-1088 176,-151 372,-320 436,-376 63,-55 158,-137 210,-181 52,-45 216,-187 364,-315 282,-244 1040,-896 1203,-1034 255,-216 312,-254 423,-279 97,-23 694,-114 1674,-256 231,-34 476,-70 545,-80 68,-10 126,-17 128,-15 2,2 -7,61 -21,132 -47,234 -52,292 -52,633 0,417 -3,406 133,541 145,143 80,132 869,137 l 653,3 -98,86 c -53,47 -144,127 -202,178 -58,51 -168,148 -246,216 -77,68 -205,181 -285,251 -968,848 -1493,1306 -1568,1366 -84,68 -158,105 -246,125 -93,21 -651,101 -1860,267 -566,77 -1503,208 -1935,270 -190,27 -509,72 -710,99 -201,28 -561,78 -800,111 -486,68 -608,79 -657,56 z"
       id="path12"
       style="fill:#009900;fill-opacity:1"
       inkscape:connector-curvature="0" />
    <path
       d="m 26100,15943 c -24,-4 -448,-62 -1260,-174 -201,-27 -520,-72 -710,-99 -432,-62 -1369,-193 -1935,-270 -1209,-166 -1767,-246 -1860,-267 -144,-32 -154,-39 -697,-514 -532,-465 -874,-764 -931,-815 l -49,-44 81,-162 c 205,-413 283,-847 267,-1478 -6,-261 -16,-383 -48,-573 -11,-70 -19,-129 -17,-131 2,-2 103,11 224,29 121,18 346,51 500,74 1431,209 1858,274 1953,296 113,26 169,64 424,280 163,138 921,790 1203,1034 148,128 312,270 364,315 52,44 147,126 210,181 64,56 260,225 436,376 440,377 1161,998 1265,1088 47,41 224,193 393,338 169,145 332,289 362,318 121,122 87,207 -82,204 -37,-1 -79,-4 -93,-6 z"
       id="path14"
       style="fill:#009900;fill-opacity:1"
       inkscape:connector-curvature="0" />
    <path
       d="m 14560,12993 c 0,-14 302,-1047 321,-1098 12,-33 37,-75 55,-92 58,-59 112,-36 157,64 20,45 274,875 281,918 2,13 -113,45 -449,126 -362,87 -365,88 -365,82 z"
       id="path16"
       style="fill:#009900;fill-opacity:1"
       inkscape:connector-curvature="0" />
    <path
       d="m 15738,12567 c -14,-50 -77,-272 -141,-492 -63,-220 -118,-422 -121,-448 -8,-56 7,-113 34,-127 59,-31 122,3 317,172 78,68 191,166 252,218 60,52 112,102 116,110 4,8 12,49 19,90 10,60 10,88 0,135 -15,73 -51,155 -93,213 -33,45 -150,126 -256,179 -105,53 -97,56 -127,-50 z"
       id="path18"
       style="fill:#009900;fill-opacity:1"
       inkscape:connector-curvature="0" />
    <path
       d="m 9930,11126 c -47,-18 -143,-60 -215,-93 -71,-33 -238,-110 -370,-171 -132,-60 -276,-127 -320,-147 -168,-79 -527,-245 -965,-447 -556,-257 -764,-353 -1120,-518 -151,-70 -356,-165 -455,-210 -379,-174 -431,-206 -423,-261 7,-50 70,-69 338,-104 58,-8 170,-24 250,-35 80,-12 190,-27 245,-35 55,-7 165,-23 245,-34 80,-12 195,-28 255,-36 61,-8 121,-17 135,-20 14,-3 77,-12 140,-20 63,-8 162,-21 220,-29 58,-9 168,-24 245,-35 232,-33 441,-63 775,-111 80,-12 195,-27 255,-35 61,-8 121,-17 135,-20 14,-3 77,-12 140,-21 193,-26 390,-53 500,-69 402,-58 447,-60 556,-17 78,31 808,360 1369,616 39,18 168,77 288,131 119,54 217,102 217,106 0,4 -29,24 -65,44 -103,57 -320,204 -445,301 -143,111 -510,473 -621,614 -111,142 -214,300 -294,452 l -66,126 -117,17 c -64,9 -139,21 -167,26 -48,9 -157,25 -375,54 -157,21 -193,19 -290,-19 z"
       id="path20"
       style="fill:#009900;fill-opacity:1"
       inkscape:connector-curvature="0" />
    <path
       d="m 19775,11145 c -228,-32 -324,-46 -370,-54 -27,-5 -120,-19 -205,-31 -182,-26 -381,-58 -385,-62 -1,-2 -23,-53 -49,-113 -83,-199 -212,-413 -356,-594 -207,-260 -549,-570 -789,-715 -34,-21 -61,-39 -59,-41 2,-1 120,-56 263,-120 143,-65 285,-129 315,-143 723,-329 1283,-582 1364,-614 109,-43 154,-41 556,17 110,16 307,43 500,69 63,9 126,18 140,21 14,3 75,12 135,20 61,8 175,23 255,35 352,51 566,81 770,110 80,11 192,27 250,36 58,8 157,21 220,29 63,8 126,17 140,20 14,3 75,12 135,20 61,8 175,24 255,36 80,11 190,27 245,34 55,8 165,23 245,35 80,11 192,27 250,35 268,35 331,54 338,104 8,55 -44,87 -423,261 -99,45 -304,140 -455,210 -356,165 -564,261 -1120,518 -434,200 -792,366 -965,447 -105,49 -540,249 -733,337 -255,116 -275,120 -467,93 z"
       id="path22"
       style="fill:#009900;fill-opacity:1"
       inkscape:connector-curvature="0" />
    <path
       d="m 14958,8923 -228,-3 V 7707 6495 l 23,-37 c 95,-158 399,-158 494,0 l 23,37 v 1218 1217 l -42,-2 c -24,-2 -145,-4 -270,-5 z"
       id="path24"
       style="fill:#009900;fill-opacity:1"
       inkscape:connector-curvature="0" />
  </g>
  <path
     style="opacity:1;fill:#ff2400;fill-opacity:1;fill-rule:nonzero;stroke:none;stroke-width:10.63829803;stroke-miterlimit:4;stroke-dasharray:none;stroke-opacity:1"
     d="m 1946.5892,2753.1989 c -144.7877,-6.9277 -284.5816,-64.9548 -375.6898,-155.945 -37.1512,-37.1031 -59.2062,-66.809 -79.7608,-107.4297 -27.3765,-54.1026 -39.655,-103.5811 -41.7474,-168.2296 -1.3287,-41.0515 0.1427,-50.9065 9.2095,-61.6818 11.8176,-14.0445 6.3638,-13.485 141.4417,-14.5075 135.7066,-1.0271 136.3559,-0.9731 151.8399,12.6221 9.2957,8.1616 12.8189,17.6518 17.9886,48.454 6.5992,39.3188 18.6372,64.5639 43.5122,91.2501 38.0165,40.7844 102.5093,62.1173 187.8844,62.1484 78.2275,0.028 124.6968,-13.261 155.9926,-44.6115 23.1718,-23.2122 34.01,-52.7102 34.01,-92.5642 0,-47.1994 -16.833,-72.2042 -65.699,-97.5936 -29.6151,-15.3872 -51.666,-22.6083 -140.684,-46.0703 -110.6565,-29.1651 -143.0833,-39.2787 -212.0318,-66.1311 -132.4734,-51.5925 -213.0116,-111.8069 -260.123,-194.481 -35.146,-61.6766 -50.3295,-139.3595 -45.1257,-230.8762 5.3822,-94.6561 40.3311,-175.4621 104.3125,-241.1825 25.464,-26.1561 44.079,-41.5203 73.7857,-60.8999 64.6414,-42.1698 140.8403,-69.1514 234.927,-83.1864 25.1284,-3.7484 39.6531,-4.5563 78.3036,-4.3555 50.1679,0.2606 70.3295,1.8597 112.8472,8.9508 63.6469,10.6149 123.2448,29.2414 175.8745,54.967 122.4792,59.8683 196.6723,150.8391 218.4721,267.8765 3.5685,19.1584 4.6632,33.3808 4.7785,62.0853 0.1432,35.642 -0.078,37.6842 -5.1695,47.761 -3.8267,7.5731 -7.7072,11.7522 -13.8298,14.8936 -8.2816,4.2492 -11.6896,4.3667 -126.5958,4.3667 -112.1495,0 -118.4986,-0.2053 -126.3111,-4.0831 -11.3064,-5.6123 -18.8333,-16.8734 -29.0583,-43.4752 -12.285,-31.9609 -23.3467,-49.5285 -44.4889,-70.655 -15.9575,-15.9458 -21.2731,-19.7134 -42.6949,-30.2622 -39.4016,-19.4025 -74.3641,-27.0489 -123.7011,-27.0535 -34.6526,0 -55.0785,3.0729 -82.9406,12.4909 -31.2622,10.5673 -51.2629,23.438 -67.8748,43.6782 -12.0472,14.6785 -18.0413,28.7397 -21.3546,50.0944 -9.9298,63.9988 50.1051,118.1952 181.4964,163.8455 24.2945,8.4409 42.1763,14.057 126.0769,39.5967 55.4851,16.89 136.8823,45.1966 173.6812,60.3992 56.3668,23.2866 100.7203,52.069 139.3619,90.4364 53.1017,52.7249 81.8988,112.481 93.5554,194.1348 5.0065,35.0699 4.9279,111.5629 -0.1504,146.3848 -25.6992,176.2185 -134.7628,294.5526 -317.8524,344.8701 -70.3127,19.3236 -154.7247,27.8796 -236.468,23.9683 z"
     id="path843"
     inkscape:connector-curvature="0"
     transform="scale(0.75)" />
</svg>
